<svg width="157.000000" height="26.000000" viewBox="0 0 157 26" fill="none" xmlns="http://www.w3.org/2000/svg" xmlns:xlink="http://www.w3.org/1999/xlink">
	<desc>
			Created with Pixso.
	</desc>
	<defs/>
	<path id="Star 1" d="M11.9 3.5L10.18 6.86C9.88 7.45 9.31 7.85 8.66 7.94L4.94 8.42C3.25 8.64 2.59 10.74 3.85 11.88L6.42 14.23C6.94 14.69 7.17 15.39 7.04 16.08L6.39 19.51C6.08 21.14 7.78 22.42 9.27 21.66L12.77 19.88C13.34 19.59 14.02 19.59 14.59 19.88L18.09 21.66C19.57 22.42 21.27 21.14 20.96 19.51L20.31 16.08C20.19 15.39 20.42 14.69 20.93 14.23L23.51 11.88C24.76 10.74 24.11 8.64 22.42 8.42L18.7 7.94C18.04 7.85 17.47 7.45 17.17 6.86L15.46 3.5C14.72 2.04 12.64 2.04 11.9 3.5Z" fill="#FFC700" fill-opacity="1.000000" fill-rule="evenodd"/>
	<path id="Star 2" d="M44.3 3.5L42.59 6.86C42.29 7.45 41.72 7.85 41.07 7.94L37.35 8.42C35.66 8.64 35 10.74 36.26 11.88L38.83 14.23C39.35 14.69 39.58 15.39 39.45 16.08L38.8 19.51C38.49 21.14 40.19 22.42 41.67 21.66L45.18 19.88C45.75 19.59 46.42 19.59 46.99 19.88L50.5 21.66C51.98 22.42 53.68 21.14 53.37 19.51L52.72 16.08C52.59 15.39 52.83 14.69 53.34 14.23L55.91 11.88C57.17 10.74 56.51 8.64 54.83 8.42L51.11 7.94C50.45 7.85 49.88 7.45 49.58 6.86L47.87 3.5C47.13 2.04 45.05 2.04 44.3 3.5Z" fill="#FFC700" fill-opacity="1.000000" fill-rule="evenodd"/>
	<path id="Star 3" d="M76.71 3.5L75 6.86C74.7 7.45 74.13 7.85 73.48 7.94L69.76 8.42C68.07 8.64 67.41 10.74 68.67 11.88L71.24 14.23C71.75 14.69 71.99 15.39 71.86 16.08L71.21 19.51C70.9 21.14 72.6 22.42 74.08 21.66L77.59 19.88C78.16 19.59 78.83 19.59 79.4 19.88L82.91 21.66C84.39 22.42 86.09 21.14 85.78 19.51L85.13 16.08C85 15.39 85.24 14.69 85.75 14.23L88.32 11.88C89.58 10.74 88.92 8.64 87.23 8.42L83.51 7.94C82.86 7.85 82.29 7.45 81.99 6.86L80.28 3.5C79.54 2.04 77.45 2.04 76.71 3.5Z" fill="#FFC700" fill-opacity="1.000000" fill-rule="evenodd"/>
	<path id="Star 4" d="M109.12 3.5L107.41 6.86C107.11 7.45 106.54 7.85 105.89 7.94L102.17 8.42C100.48 8.64 99.82 10.74 101.08 11.88L103.65 14.23C104.16 14.69 104.4 15.39 104.27 16.08L103.62 19.51C103.31 21.14 105.01 22.42 106.49 21.66L110 19.88C110.57 19.59 111.24 19.59 111.81 19.88L115.32 21.66C116.8 22.42 118.5 21.14 118.19 19.51L117.54 16.08C117.41 15.39 117.64 14.69 118.16 14.23L120.73 11.88C121.99 10.74 121.33 8.64 119.64 8.42L115.92 7.94C115.27 7.85 114.7 7.45 114.4 6.86L112.69 3.5C111.94 2.04 109.86 2.04 109.12 3.5Z" fill="#FFC700" fill-opacity="1.000000" fill-rule="evenodd"/>
	<path id="Star 5" d="M141.53 3.5L139.82 6.86C139.52 7.45 138.95 7.85 138.29 7.94L134.57 8.42C132.89 8.64 132.23 10.74 133.48 11.88L136.06 14.23C136.57 14.69 136.8 15.39 136.67 16.08L136.03 19.51C135.72 21.14 137.42 22.42 138.9 21.66L142.4 19.88C142.97 19.59 143.65 19.59 144.22 19.88L147.73 21.66C149.21 22.42 150.91 21.14 150.6 19.51L149.95 16.08C149.82 15.39 150.05 14.69 150.57 14.23L153.14 11.88C154.4 10.74 153.74 8.64 152.05 8.42L148.33 7.94C147.68 7.85 147.11 7.45 146.81 6.86L145.09 3.5C144.35 2.04 142.27 2.04 141.53 3.5Z" fill="#FFC700" fill-opacity="0" fill-rule="evenodd"/>
	<path id="Star 5" d="M139.82 6.86C139.52 7.45 138.95 7.85 138.29 7.94L134.57 8.42C132.89 8.64 132.23 10.74 133.48 11.88L136.06 14.23C136.57 14.69 136.8 15.39 136.67 16.08L136.03 19.51C135.72 21.14 137.42 22.42 138.9 21.66L142.4 19.88C142.97 19.59 143.65 19.59 144.22 19.88L147.73 21.66C149.21 22.42 150.91 21.14 150.6 19.51L149.95 16.08C149.82 15.39 150.05 14.69 150.57 14.23L153.14 11.88C154.4 10.74 153.74 8.64 152.05 8.42L148.33 7.94C147.68 7.85 147.11 7.45 146.81 6.86L145.09 3.5C144.35 2.04 142.27 2.04 141.53 3.5L139.82 6.86ZM141.15 7.54C140.63 8.57 139.63 9.27 138.49 9.42L134.77 9.91C134.35 9.96 134.18 10.49 134.5 10.77L137.07 13.12C137.97 13.94 138.38 15.16 138.15 16.36L137.5 19.79C137.42 20.2 137.85 20.52 138.22 20.33L141.72 18.54C142.72 18.03 143.9 18.03 144.9 18.54L148.41 20.33C148.78 20.52 149.2 20.2 149.12 19.79L148.47 16.36C148.25 15.16 148.66 13.94 149.56 13.12L152.13 10.77C152.44 10.49 152.28 9.96 151.86 9.91L148.14 9.42C146.99 9.27 145.99 8.57 145.47 7.54L143.76 4.18C143.57 3.81 143.05 3.81 142.87 4.18L141.15 7.54Z" fill="#FFC700" fill-opacity="1.000000" fill-rule="evenodd"/>
</svg>
