<svg width="26.000000" height="27.384613" viewBox="0 0 26 27.3846" fill="none" xmlns="http://www.w3.org/2000/svg" xmlns:xlink="http://www.w3.org/1999/xlink">
	<desc>
			Created with Pixso.
	</desc>
	<defs>
		<filter id="filter_1_43_dd" x="0.000000" y="0.000000" width="26.000000" height="27.384613" filterUnits="userSpaceOnUse" color-interpolation-filters="sRGB">
			<feFlood flood-opacity="0" result="BackgroundImageFix"/>
			<feColorMatrix in="SourceAlpha" type="matrix" values="0 0 0 0 0 0 0 0 0 0 0 0 0 0 0 0 0 0 127 0" result="hardAlpha"/>
			<feOffset dx="0" dy="4"/>
			<feGaussianBlur stdDeviation="1.33333"/>
			<feComposite in2="hardAlpha" operator="out" k2="-1" k3="1"/>
			<feColorMatrix type="matrix" values="0 0 0 0 0 0 0 0 0 0 0 0 0 0 0 0 0 0 0.25 0"/>
			<feBlend mode="normal" in2="BackgroundImageFix" result="effect_dropShadow_1"/>
			<feBlend mode="normal" in="SourceGraphic" in2="effect_dropShadow_1" result="shape"/>
		</filter>
	</defs>
	<g filter="url(#filter_1_43_dd)">
		<path id="Vector" d="M19.23 10.93C19.36 11.76 19.5 12.46 19.78 13.29L20.61 15.64L19.92 16.61L15.07 16.61C15.07 17.3 14.8 18 14.24 18.55C13.69 19.1 13 19.38 12.3 19.38C11.61 19.38 10.78 19.1 10.36 18.55C9.81 18 9.53 17.3 9.53 16.61L4.69 16.61L4 15.64L4.83 13.29C5.1 12.18 5.38 11.07 5.38 9.96L5.38 6.92C5.38 5.95 5.52 4.98 5.93 4.15C6.35 3.18 6.9 2.49 7.6 1.79C8.29 1.1 9.12 0.69 10.09 0.41C10.78 0.13 11.61 0 12.3 0C12.03 0.41 11.75 0.96 11.47 1.52C11.2 1.52 10.92 1.52 10.5 1.79C9.81 1.93 9.12 2.35 8.56 2.9C8.01 3.32 7.46 4.01 7.18 4.7C6.9 5.39 6.76 6.09 6.76 6.92L6.76 9.96C6.76 11.21 6.49 12.46 6.21 13.7L5.66 15.23L18.95 15.23L18.4 13.7C18.15 12.97 18.02 12.14 17.89 11.38L17.84 11.07C18.4 11.07 18.81 11.07 19.23 10.93ZM12.3 18C12.58 18 13 17.86 13.27 17.58C13.55 17.3 13.69 17.03 13.69 16.61L10.92 16.61C10.92 17.03 11.06 17.3 11.33 17.58C11.61 17.86 12.03 18 12.3 18ZM22 4.15C22 5.25 21.56 6.31 20.78 7.09C20 7.87 18.94 8.3 17.84 8.3C16.74 8.3 15.68 7.87 14.9 7.09C14.12 6.31 13.69 5.25 13.69 4.15C13.69 3.05 14.12 1.99 14.9 1.21C15.68 0.43 16.74 0 17.84 0C18.94 0 20 0.43 20.78 1.21C21.56 1.99 22 3.05 22 4.15Z" fill="#FFFFFF" fill-opacity="1.000000" fill-rule="evenodd"/>
	</g>
</svg>
